<?xml version="1.0" encoding="utf-8"?>
<!-- Generator: Adobe Illustrator 27.0.0, SVG Export Plug-In . SVG Version: 6.00 Build 0)  -->
<svg version="1.1" id="Layer_1" xmlns="http://www.w3.org/2000/svg" xmlns:xlink="http://www.w3.org/1999/xlink" x="0px" y="0px"
	 viewBox="0 0 478.36 193.44" style="enable-background:new 0 0 478.36 193.44;" xml:space="preserve">
<style type="text/css">
	.st0{fill-rule:evenodd;clip-rule:evenodd;fill:#AF6A4C;}
	.st1{fill-rule:evenodd;clip-rule:evenodd;}
</style>
<g>
	<path class="st0" d="M69.01,112.43V81.01L96.19,65.3v5.8L74.02,83.91v4.64l13.71-7.92l8.46-4.89v5.8l-13.13,7.59v15.18l13.13,7.59
		l13.13-7.59V92.03l-13.13,7.59v-5.8l5.3-3.06l21.88-12.65v34.32l-27.18,15.71L69.01,112.43z M78.04,92.03l-4.01,2.32v15.18
		l4.01,2.32V92.03z M105.21,117.12l13.13-7.59V86.81l-4.01,2.32v18.08l-13.13,7.59L105.21,117.12z M96.19,117.7l-0.68-0.39
		l-11.22-6.48l-1.24-0.72v4.64l13.13,7.59l4.01-2.32L96.19,117.7z"/>
	<path class="st1" d="M404.96,73.77c-2.43,0-4.4-1.97-4.4-4.41c0-2.43,1.97-4.41,4.4-4.41c2.43,0,4.4,1.97,4.4,4.41
		C409.36,71.79,407.39,73.77,404.96,73.77z M404.96,65.67c-2.03,0-3.68,1.65-3.68,3.69c0,2.04,1.65,3.69,3.68,3.69
		c2.03,0,3.68-1.65,3.68-3.69C408.64,67.32,406.99,65.67,404.96,65.67z M405.57,69.58c0.2,0.12,0.37,0.25,0.5,0.39
		c0.13,0.14,0.31,0.39,0.53,0.75l0.56,0.9h-1.11l-0.67-1.01c-0.24-0.36-0.4-0.58-0.49-0.68c-0.09-0.09-0.18-0.16-0.28-0.19
		c-0.1-0.03-0.26-0.05-0.47-0.05h-0.19v1.93h-0.93V67h1.96c0.49,0,0.85,0.04,1.07,0.12c0.22,0.08,0.4,0.23,0.54,0.44
		c0.13,0.21,0.2,0.45,0.2,0.73c0,0.35-0.1,0.63-0.3,0.86C406.28,69.38,405.97,69.52,405.57,69.58z M405.7,67.98
		c-0.08-0.1-0.2-0.16-0.35-0.18c-0.08-0.01-0.3-0.02-0.68-0.02h-0.73v1.17h0.69c0.45,0,0.72-0.02,0.83-0.06
		c0.11-0.04,0.2-0.1,0.26-0.2c0.06-0.09,0.09-0.21,0.09-0.35C405.83,68.2,405.78,68.08,405.7,67.98z M390,101.84V89.7h-14.71v13.16
		c0,1.27-1.03,2.3-2.3,2.3h-3.89V75.37c0-1.53-0.97-2.88-2.38-3.29h-0.07l-0.15-0.07l-1.29-0.29h6.77c0.92,0,1.76,0.34,2.37,0.95
		c0.62,0.68,0.94,1.51,0.94,2.37v11.62H390V74.02c0-1.27,1.03-2.3,2.3-2.3h3.89v29.72c0,1.51,1,2.88,2.43,3.34h0.08l1.38,0.38h-6.85
		C391.4,105.05,390,103.59,390,101.84z M367.89,121l-1.18,0.95c-0.58-0.73-1.4-1.16-2.44-1.16c-1.65,0.02-3.05,1.24-3.05,3.06
		c0,1.82,1.32,3.21,3.05,3.21c1.06,0,1.92-0.4,2.53-1.19l1.18,1.03c-0.89,1.03-2.2,1.6-3.71,1.6c-2.61,0-4.72-1.95-4.72-4.64
		c0-2.68,2.19-4.47,4.72-4.49C365.79,119.36,367.01,119.97,367.89,121z M357.33,80.12c-3.09-3.72-6.54-5.69-9.97-5.69
		c-6.03,0-10.76,6.21-10.76,14.14c0,7.56,5.08,13.94,11.09,13.94c3.31,0,6.61-1.87,9.55-5.41l0.47-0.57l2,1.92l-0.23,0.46
		c-0.14,0.29-3.63,7.04-13.65,7.04c-9.49,0-16.12-7.15-16.12-17.38c0-10.23,6.63-17.38,16.12-17.38c9.19,0,13,5.87,13.67,7.05
		l0.26,0.45l-1.94,2.02L357.33,80.12z M330.65,126.98h3.94v1.4h-5.55v-8.92h1.61V126.98z M321.4,119.47h6v1.4h-4.39V123h4.2v1.4
		h-4.2v2.58h4.39v1.4h-6V119.47z M321.8,105.16h-3.45V75.44c0-1.73-1.17-2.97-3.38-3.58l-0.51-0.14h9.64v31.14
		C324.1,104.13,323.07,105.16,321.8,105.16z M316.38,119.36c1.52,0,2.74,0.61,3.62,1.64l-1.18,0.95c-0.58-0.73-1.4-1.16-2.44-1.16
		c-1.65,0.02-3.05,1.24-3.05,3.06c0,1.82,1.32,3.21,3.05,3.21c1.06,0,1.92-0.4,2.53-1.19l1.18,1.03c-0.89,1.03-2.2,1.6-3.71,1.6
		c-2.6,0-4.72-1.95-4.72-4.64C311.67,121.17,313.85,119.38,316.38,119.36z M289.54,75.45c0-1.74-1.16-2.97-3.35-3.58l-0.5-0.14h9.6
		v30.09h16.18v3.35h-21.93V75.45z M291.56,123.86c0,2.76-1.98,4.52-4.73,4.52h-2.8v-8.92h2.81
		C289.59,119.47,291.56,121.12,291.56,123.86z M285.63,126.98h1.19c1.88,0,3.07-1.22,3.07-3.12c0-1.88-1.18-3-3.05-3h-1.21V126.98z
		 M280.88,128.38l-2.04-3.58h-1.71v3.58h-1.61v-8.92h3.59c1.62,0,3.05,0.78,3.05,2.67c0,1.36-0.76,2.12-1.67,2.45l2.23,3.8H280.88z
		 M280.53,122.13c0-0.92-0.54-1.27-1.47-1.27h-1.92v2.56h1.83C279.99,123.43,280.53,123.1,280.53,122.13z M269.5,102.86
		c0,1.27-1.03,2.3-2.3,2.3h-3.89V75.07h-10.62v-3.35h27.39v3.35H269.5V102.86z M249.94,128.49c-2.6,0-4.79-1.88-4.79-4.55
		c0-2.68,2.19-4.58,4.79-4.58c2.62,0,4.81,1.89,4.81,4.58C254.74,126.61,252.56,128.49,249.94,128.49z M249.94,120.79
		c-1.73,0-3.13,1.33-3.13,3.15c0,1.8,1.4,3.12,3.13,3.12c1.74,0,3.14-1.31,3.14-3.12C253.08,122.12,251.68,120.79,249.94,120.79z
		 M236.49,102.86c0,1.27-1.03,2.3-2.3,2.3h-3.89V75.07h-10.63v-3.35h27.39v3.35h-10.58V102.86z M224.1,120.87h-4.39V123h4.2v1.4
		h-4.2v2.58h4.39v1.4h-6v-8.92h6V120.87z M201.44,105.73c-10.09,0-16.12-6.5-16.12-17.38c0-10.53,6.33-17.34,16.12-17.34
		c7.79,0,16.12,4.56,16.12,17.34C217.57,99.23,211.54,105.73,201.44,105.73z M201.44,73.85c-5.86,0-9.5,5.56-9.5,14.51
		c0,9.08,3.55,14.51,9.5,14.51c5.95,0,9.5-5.42,9.5-14.51C210.94,79.41,207.3,73.85,201.44,73.85z M188.97,123.94
		c0,2.67-2.19,4.55-4.81,4.55c-2.6,0-4.79-1.88-4.79-4.55c0-2.68,2.19-4.58,4.79-4.58C186.78,119.36,188.97,121.25,188.97,123.94z
		 M184.16,120.79c-1.73,0-3.13,1.33-3.13,3.15c0,1.8,1.4,3.12,3.13,3.12c1.74,0,3.14-1.31,3.14-3.12
		C187.3,122.12,185.9,120.79,184.16,120.79z M177.93,80.59l-0.49-0.6c-3.07-3.71-6.51-5.67-9.93-5.67c-6.05,0-10.8,6.2-10.8,14.12
		c0,7.53,5.09,13.89,11.12,13.89c2.22,0,4.41-0.82,6.52-2.44V88.45h5.31v10.12l-0.06,0.13c-0.17,0.39-0.79,1.42-1.94,2.58
		c-2.05,2.05-5.74,4.49-11.73,4.49c-9.49,0-16.12-7.13-16.12-17.34c0-10.23,6.63-17.37,16.12-17.37c8.96,0,12.72,5.39,13.67,7.04
		l0.26,0.45l-0.36,0.37L177.93,80.59z M176.25,125.71v-6.25h1.61v6.25c0,1.7-1.09,2.67-2.75,2.67h-0.49v-1.4h0.42
		C175.81,126.98,176.25,126.5,176.25,125.71z M192.06,124.8c0,1.34,0.85,2.25,2.19,2.25c1.34,0,2.2-0.91,2.2-2.25v-5.34h1.61v5.35
		c0,2.27-1.53,3.67-3.81,3.67c-2.28,0-3.8-1.4-3.8-3.67v-5.35h1.61V124.8z M206.59,122.13c0,1.36-0.76,2.12-1.67,2.45l2.23,3.8
		h-1.85l-2.04-3.58h-1.71v3.58h-1.61v-8.92h3.59C205.16,119.47,206.59,120.24,206.59,122.13z M201.56,120.87v2.56h1.83
		c1.03,0,1.56-0.33,1.56-1.3c0-0.92-0.54-1.27-1.47-1.27H201.56z M214.64,125.77v-6.31h1.52v8.92h-1.28l-4.87-6.43v6.43h-1.56v-8.92
		h1.41L214.64,125.77z M228.99,123.09l2.19-3.62H233l-3.22,5.2v3.71h-1.61v-3.71l-3.26-5.2h1.85L228.99,123.09z M244.28,120.87
		h-2.83v7.52h-1.61v-7.52h-2.83v-1.4h7.26V120.87z M258.72,125.65l1.53-3.38h1.25l1.55,3.38l1.82-6.19h1.68l-2.83,8.92h-0.86
		l-2.01-4.01l-1.97,4.01h-0.86l-2.84-8.92h1.71L258.72,125.65z M270.88,119.44l3.5,8.95h-1.73l-0.66-1.77h-3.71l-0.67,1.77h-1.71
		l3.51-8.95H270.88z M271.59,125.24l-1.46-3.83l-1.47,3.83H271.59z M302.66,120.87h-4.39V123h4.2v1.4h-4.2v2.58h4.39v1.4h-6v-8.92h6
		V120.87z M303.84,119.47h1.86l1.94,2.95l1.95-2.95h1.83l-2.86,4.15l3.22,4.77h-1.89l-2.25-3.44l-2.22,3.44h-1.86l3.16-4.71
		L303.84,119.47z M337.46,126.98h3.94v1.4h-5.55v-8.92h1.61V126.98z M348.67,120.87h-4.39V123h4.2v1.4h-4.2v2.58h4.39v1.4h-6v-8.92
		h6V120.87z M356.5,125.77v-6.31h1.52v8.92h-1.28l-4.87-6.43v6.43h-1.56v-8.92h1.41L356.5,125.77z M375.29,120.87h-4.39V123h4.2v1.4
		h-4.2v2.58h4.39v1.4h-6v-8.92h6V120.87z"/>
</g>
</svg>
